<?xml version="1.0" encoding="UTF-8" standalone="no"?>
<!-- Created with Inkscape (http://www.inkscape.org/) -->

<svg
   width="290.35953"
   height="288.41351"
   viewBox="0 0 76.82429 76.309411"
   version="1.1"
   id="svg5"
   inkscape:version="1.1.1 (3bf5ae0d25, 2021-09-20)"
   sodipodi:docname="my-company-logo-circle.svg"
   xmlns:inkscape="http://www.inkscape.org/namespaces/inkscape"
   xmlns:sodipodi="http://sodipodi.sourceforge.net/DTD/sodipodi-0.dtd"
   xmlns="http://www.w3.org/2000/svg"
   xmlns:svg="http://www.w3.org/2000/svg">
  <sodipodi:namedview
     id="namedview7"
     pagecolor="#ffffff"
     bordercolor="#666666"
     borderopacity="1.0"
     inkscape:pageshadow="2"
     inkscape:pageopacity="0.0"
     inkscape:pagecheckerboard="0"
     inkscape:document-units="px"
     showgrid="false"
     units="px"
     fit-margin-top="0"
     fit-margin-left="0"
     fit-margin-right="0"
     fit-margin-bottom="0"
     inkscape:zoom="0.59753507"
     inkscape:cx="105.43314"
     inkscape:cy="404.16038"
     inkscape:window-width="1920"
     inkscape:window-height="1051"
     inkscape:window-x="-9"
     inkscape:window-y="-9"
     inkscape:window-maximized="1"
     inkscape:current-layer="layer1" />
  <defs
     id="defs2" />
  <g
     inkscape:label="Layer 1"
     inkscape:groupmode="layer"
     id="layer1"
     transform="translate(-64.04632,-41.215039)">
    <g
       aria-label="aquint studio"
       id="text2060"
       style="font-size:7.40833px;line-height:1.75;letter-spacing:3.96875px;fill:#ffffff;stroke-width:0.264583">
      <path
         d="m 68.850359,67.498396 -0.247256,0.629636 -0.400677,-0.157345 q 0.02418,0.106654 0.07171,0.292425 0.04548,0.181082 0.0532,0.339564 0.0153,0.188662 -0.01485,0.413884 -0.02678,0.226545 -0.135205,0.502642 -0.199657,0.508422 -0.675194,0.729738 -0.475538,0.221316 -0.997428,0.01637 -0.427614,-0.167923 -0.618842,-0.452877 -0.193273,-0.289643 -0.211245,-0.689213 -0.01665,-0.402938 0.118557,-0.90558 0.135206,-0.502641 0.325115,-1.065413 l -0.09764,-0.03834 q -0.21549,-0.08462 -0.387317,-0.06271 -0.170505,0.01854 -0.306847,0.128223 -0.130331,0.10427 -0.231312,0.282247 -0.100981,0.177976 -0.181637,0.383365 -0.09784,0.24916 -0.150827,0.582005 -0.05635,0.331523 -0.06002,0.707048 l -0.01322,0.03367 -0.643104,-0.252546 q 0.02222,-0.20502 0.09912,-0.578992 0.07691,-0.373971 0.21045,-0.714042 0.156023,-0.39731 0.338398,-0.663798 0.18033,-0.271176 0.423203,-0.424522 0.238184,-0.151301 0.527611,-0.16589 0.289427,-0.01459 0.653067,0.128211 z m -1.173191,0.266023 -1.047148,-0.411212 q -0.09688,0.296176 -0.217907,0.703341 -0.119708,0.403798 -0.145645,0.657879 -0.02966,0.303141 0.06921,0.536282 0.09551,0.231819 0.381705,0.344208 0.323235,0.126934 0.564909,-0.0036 0.238307,-0.131821 0.395652,-0.532498 0.1309,-0.333337 0.111376,-0.659678 -0.02289,-0.327664 -0.112156,-0.634757 z"
         id="path13449"
         style="fill:#ffffff" />
      <path
         d="m 74.442611,61.013983 -0.390483,0.556783 -1.593346,-1.117445 q 0.04142,0.413438 -0.02763,0.744987 -0.07201,0.329472 -0.27971,0.625633 -0.41333,0.58936 -1.113624,0.624006 -0.701178,0.02961 -1.500813,-0.531193 -0.426472,-0.299093 -0.667091,-0.648992 -0.241503,-0.354939 -0.322385,-0.712106 -0.07911,-0.34709 -0.01272,-0.693755 0.06639,-0.346664 0.272018,-0.639864 0.186933,-0.266545 0.38948,-0.429355 0.204625,-0.165772 0.469674,-0.298004 l -0.117233,-0.135237 0.365558,-0.521243 z M 71.990847,60.12515 70.119109,58.812464 q -0.265665,0.15831 -0.43175,0.306928 -0.166084,0.148618 -0.311477,0.355931 -0.338556,0.482742 -0.186365,0.96503 0.149229,0.480211 0.723781,0.883156 0.580476,0.407098 1.035645,0.425874 0.454285,0.01374 0.759609,-0.421619 0.170317,-0.242852 0.236977,-0.558401 0.0637,-0.317625 0.04532,-0.644213 z"
         id="path13451"
         style="fill:#ffffff" />
      <path
         d="m 79.294212,54.004514 -0.512292,0.447259 -0.295,-0.337894 q -0.08044,0.43038 -0.222353,0.746355 -0.14191,0.315974 -0.428031,0.565773 -0.479592,0.418711 -1.001195,0.360286 -0.523982,-0.06115 -1.018822,-0.627941 l -1.724802,-1.975594 0.512292,-0.447259 1.513068,1.733073 q 0.202218,0.231621 0.369139,0.378811 0.164542,0.144465 0.33769,0.199784 0.178251,0.05566 0.343005,0.0079 0.164754,-0.0478 0.3882,-0.24288 0.198922,-0.17367 0.342865,-0.481816 0.146668,-0.310524 0.210677,-0.649724 l -1.984118,-2.272615 0.512292,-0.447259 z"
         id="path13453"
         style="fill:#ffffff" />
      <path
         d="m 82.0194,46.584058 -0.667739,0.377128 -0.346887,-0.614194 0.66774,-0.377128 z m 2.281898,4.128575 -0.592146,0.334434 -1.987039,-3.518231 0.592146,-0.334435 z"
         id="path13455"
         style="fill:#ffffff" />
      <path
         d="m 92.330045,47.424792 -0.647455,0.208052 -0.703837,-2.190326 q -0.08521,-0.265181 -0.190355,-0.485963 -0.106248,-0.224226 -0.230955,-0.328534 -0.132578,-0.116978 -0.316575,-0.133843 -0.185103,-0.02031 -0.443396,0.06269 -0.265181,0.08521 -0.512417,0.309041 -0.247235,0.223828 -0.447123,0.512232 l 0.922957,2.87222 -0.647455,0.208052 -1.236142,-3.846846 0.647455,-0.208052 0.137226,0.427044 q 0.222278,-0.348791 0.500632,-0.594018 0.278354,-0.245226 0.619301,-0.354786 0.623348,-0.200306 1.071145,0.06995 0.447798,0.270253 0.674664,0.976255 z"
         id="path13457"
         style="fill:#ffffff" />
      <path
         d="m 99.604918,46.226084 q -0.18612,0.06841 -0.409952,0.122214 -0.22023,0.05346 -0.396698,0.0701 -0.615836,0.05805 -0.967593,-0.243055 -0.351758,-0.301111 -0.420678,-1.032192 l -0.201667,-2.13922 -0.457375,0.04312 -0.05364,-0.569018 0.457375,-0.04312 -0.108981,-1.156044 0.677059,-0.06383 0.108982,1.156043 1.397336,-0.131728 0.05364,0.569018 -1.397336,0.131728 0.172809,1.833103 q 0.02988,0.316922 0.06126,0.495633 0.03104,0.17511 0.132074,0.321821 0.09281,0.136586 0.236113,0.192111 0.146565,0.05158 0.431074,0.02476 0.165664,-0.01562 0.341319,-0.07941 0.175316,-0.06739 0.251491,-0.107276 l 0.03601,-0.0034 z"
         id="path13459"
         style="fill:#ffffff" />
      <path
         d="m 113.9734,47.142111 q -0.16091,0.529547 -0.70354,0.735169 -0.53916,0.206674 -1.29714,-0.02365 -0.42917,-0.13041 -0.75863,-0.340157 -0.32494,-0.212157 -0.53041,-0.406914 l 0.22191,-0.73029 0.0346,0.01052 q 0.23757,0.325494 0.57276,0.578571 0.33625,0.249617 0.68236,0.354786 0.42917,0.13041 0.71352,0.06558 0.28434,-0.06482 0.37479,-0.362479 0.0694,-0.228432 -0.0264,-0.386073 -0.0958,-0.157642 -0.44432,-0.35429 -0.12898,-0.07322 -0.34133,-0.183111 -0.20889,-0.108841 -0.3776,-0.213036 -0.46777,-0.289581 -0.60348,-0.614368 -0.13119,-0.327196 -0.0155,-0.707916 0.0726,-0.238815 0.23363,-0.420495 0.16453,-0.180627 0.41575,-0.285762 0.24325,-0.103776 0.5693,-0.10678 0.33056,-0.0054 0.7009,0.107117 0.34611,0.105169 0.67285,0.298969 0.33125,0.19139 0.5298,0.384043 l -0.21139,0.69568 -0.0346,-0.01052 q -0.19345,-0.25916 -0.51209,-0.492083 -0.31758,-0.236385 -0.66022,-0.340502 -0.3565,-0.108324 -0.6443,-0.04455 -0.28676,0.06031 -0.36879,0.330277 -0.0726,0.238816 0.0394,0.405177 0.10856,0.165309 0.41077,0.340312 0.16735,0.09622 0.37624,0.205062 0.21235,0.109893 0.35066,0.189727 0.42186,0.241604 0.59082,0.568933 0.16791,0.330791 0.0396,0.753045 z"
         id="path13461"
         style="fill:#ffffff" />
      <path
         d="m 120.02096,51.213553 q -0.19259,-0.04722 -0.4083,-0.127617 -0.21254,-0.07867 -0.3682,-0.163442 -0.54324,-0.295835 -0.66681,-0.742075 -0.12358,-0.446241 0.22762,-1.091136 l 1.02764,-1.887033 -0.40346,-0.219714 0.27334,-0.501938 0.40346,0.219714 0.55534,-1.01976 0.59724,0.325245 -0.55534,1.01976 1.23261,0.671252 -0.27334,0.501938 -1.23261,-0.671251 -0.88059,1.617003 q -0.15224,0.27956 -0.22603,0.445322 -0.0721,0.162584 -0.0702,0.340708 6.9e-4,0.165134 0.0885,0.291235 0.0928,0.124654 0.34373,0.261326 0.14613,0.07958 0.32746,0.124784 0.18306,0.04203 0.26852,0.05149 l 0.0318,0.0173 z"
         id="path13463"
         style="fill:#ffffff" />
      <path
         d="m 126.48606,56.149396 -0.51271,-0.44678 0.29468,-0.33817 q -0.43732,-0.02123 -0.76964,-0.118895 -0.33232,-0.09767 -0.61868,-0.347199 -0.47998,-0.418262 -0.49296,-0.942966 -0.0106,-0.527432 0.48371,-1.094685 l 1.72295,-1.977206 0.51271,0.44678 -1.51145,1.734487 q -0.202,0.23181 -0.32515,0.41718 -0.12077,0.182643 -0.15205,0.3617 -0.0309,0.184161 0.0388,0.340894 0.0697,0.156733 0.29336,0.351605 0.19909,0.173483 0.52393,0.274228 0.32757,0.103122 0.67233,0.120455 l 1.98199,-2.274468 0.51271,0.446779 z"
         id="path13465"
         style="fill:#ffffff" />
      <path
         d="m 131.92423,62.777219 -0.39152,-0.556056 0.34606,-0.243657 q -0.37573,-0.0938 -0.67435,-0.272861 -0.29861,-0.179062 -0.51311,-0.483709 -0.41651,-0.591549 -0.20676,-1.261273 0.21183,-0.666768 1.0193,-1.235301 0.42,-0.295721 0.83161,-0.408574 0.41369,-0.109895 0.78809,-0.06825 0.3664,0.04285 0.67214,0.225748 0.30782,0.185853 0.50983,0.472754 0.18326,0.260281 0.26868,0.500976 0.0884,0.238612 0.12921,0.541662 l 1.43155,-1.00795 0.39151,0.556055 z m 0.42186,-1.128754 1.89591,-1.33491 q -0.0577,-0.295594 -0.14421,-0.500132 -0.0865,-0.204537 -0.23436,-0.414537 -0.32904,-0.467323 -0.83766,-0.498525 -0.50861,-0.0312 -1.10608,0.389472 -0.58859,0.414426 -0.75458,0.832137 -0.16304,0.415628 0.14935,0.859289 0.1666,0.236619 0.44089,0.406265 0.27725,0.167563 0.59074,0.260941 z"
         id="path13467"
         style="fill:#ffffff" />
      <path
         d="m 139.02695,66.248684 -0.30661,-0.702915 0.64655,-0.282027 0.30661,0.702916 z m -4.34095,1.846174 -0.2719,-0.62334 3.70357,-1.615505 0.2719,0.62334 z"
         id="path13469"
         style="fill:#ffffff" />
      <path
         d="m 139.12257,76.060574 q -0.96579,0.206117 -1.63044,-0.169867 -0.66466,-0.375984 -0.84208,-1.207339 -0.17894,-0.83843 0.27431,-1.452996 0.45401,-0.611029 1.4198,-0.817146 0.96578,-0.206116 1.62968,0.16633 0.66819,0.375229 0.84713,1.213659 0.17743,0.831355 -0.27936,1.446676 -0.45326,0.614566 -1.41904,0.820683 z m -0.14647,-0.68631 q 0.76767,-0.163836 1.07495,-0.543815 0.31082,-0.380733 0.19682,-0.914923 -0.11552,-0.541265 -0.55469,-0.761937 -0.43488,-0.217889 -1.20255,-0.05405 -0.74292,0.158552 -1.06435,0.54155 -0.31789,0.382244 -0.20313,0.919971 0.11325,0.530652 0.55596,0.750569 0.447,0.222699 1.19699,0.06264 z"
         id="path13471"
         style="fill:#ffffff" />
    </g>
    <g
       aria-label="interiors"
       id="text11541"
       style="font-size:7.40833px;line-height:1.75;letter-spacing:3.97933px;fill:#ffffff;stroke-width:0.264583">
      <path
         d="m 79.089025,103.14084 -0.522046,-0.56176 0.516709,-0.48018 0.522046,0.56175 z m -3.484876,3.17928 -0.462947,-0.49816 2.959816,-2.7506 0.462946,0.49816 z"
         id="path13625"
         style="fill:#ffffff" />
      <path
         d="m 82.26858,111.89105 -0.554356,-0.39392 1.33262,-1.87537 q 0.16134,-0.22705 0.275187,-0.44347 0.115944,-0.21937 0.124797,-0.38171 0.01429,-0.17623 -0.0824,-0.33369 -0.09459,-0.1604 -0.31574,-0.31755 -0.22705,-0.16134 -0.554364,-0.22529 -0.327313,-0.064 -0.677987,-0.0513 l -1.747493,2.45922 -0.554357,-0.39392 2.340468,-3.29371 0.554357,0.39392 -0.25982,0.36564 q 0.412445,-0.0309 0.775531,0.0452 0.363086,0.0761 0.655008,0.2835 0.533716,0.37925 0.585453,0.89971 0.05174,0.52047 -0.377802,1.12495 z"
         id="path13627"
         style="fill:#ffffff" />
      <path
         d="m 88.883059,115.16143 q -0.196323,-0.0279 -0.41894,-0.0865 -0.219284,-0.0572 -0.382583,-0.12615 -0.569883,-0.24054 -0.737076,-0.67233 -0.167192,-0.4318 0.118359,-1.10833 l 0.835556,-1.97959 -0.423246,-0.17864 0.222252,-0.52656 0.423246,0.17864 0.451537,-1.06977 0.626537,0.26445 -0.451537,1.06978 1.293066,0.54578 -0.222252,0.52656 -1.293066,-0.54579 -0.715989,1.69632 q -0.123786,0.29327 -0.180789,0.46553 -0.05559,0.16893 -0.0361,0.34599 0.01705,0.16425 0.116966,0.28103 0.104653,0.11484 0.367932,0.22597 0.153301,0.0647 0.33822,0.0917 0.186326,0.0237 0.272304,0.0246 l 0.03333,0.0141 z"
         id="path13629"
         style="fill:#ffffff" />
      <path
         d="m 97.144931,115.31408 -2.925521,-0.55165 q -0.06904,0.36614 -0.01046,0.66063 0.05925,0.29093 0.218364,0.50131 0.15267,0.20548 0.388967,0.33838 0.239852,0.13358 0.545557,0.19122 0.405236,0.0764 0.84419,-0.006 0.443179,-0.0858 0.646852,-0.20933 l 0.03555,0.007 -0.137409,0.72871 q -0.364509,0.0785 -0.734523,0.10813 -0.370013,0.0296 -0.757476,-0.0434 -0.988208,-0.18635 -1.442198,-0.82412 -0.453319,-0.64132 -0.267648,-1.62598 0.18366,-0.97398 0.821227,-1.44642 0.641123,-0.47176 1.508471,-0.30821 0.803363,0.15148 1.148558,0.70248 0.34875,0.55167 0.185869,1.41546 z m -0.553988,-0.63454 q 0.09565,-0.52677 -0.113106,-0.8643 -0.2052,-0.33686 -0.738406,-0.4374 -0.53676,-0.10122 -0.916339,0.15482 -0.376025,0.25672 -0.50716,0.71789 z"
         id="path13631"
         style="fill:#ffffff" />
      <path
         d="m 104.21228,114.15376 -0.0362,10e-4 q -0.15291,-0.0318 -0.29796,-0.0421 -0.14154,-0.014 -0.33679,-0.008 -0.31458,0.009 -0.60339,0.15857 -0.28891,0.14586 -0.55373,0.37426 l 0.0828,2.86736 -0.67978,0.0196 -0.11666,-4.03889 0.67978,-0.0196 0.0172,0.59662 q 0.39558,-0.33712 0.69906,-0.47979 0.30699,-0.14638 0.6288,-0.15568 0.17718,-0.005 0.25704,0.003 0.0798,0.005 0.23959,0.0256 z"
         id="path13633"
         style="fill:#ffffff" />
      <path
         d="m 108.60182,112.018 -0.74975,0.16121 -0.14828,-0.68962 0.74974,-0.16121 z m 0.94915,4.62075 -0.66486,0.14296 -0.8494,-3.9503 0.66487,-0.14296 z"
         id="path13635"
         style="fill:#ffffff" />
      <path
         d="m 116.99138,111.88337 q 0.39801,0.90378 0.16487,1.63095 -0.23313,0.72718 -1.01111,1.06978 -0.7846,0.34552 -1.47843,0.0266 -0.69051,-0.32042 -1.08851,-1.2242 -0.398,-0.90378 -0.16818,-1.6295 0.23167,-0.73048 1.01627,-1.076 0.77799,-0.3426 1.47327,-0.0203 0.69382,0.31897 1.09182,1.22275 z m -0.64224,0.28283 q -0.31637,-0.71839 -0.75084,-0.94208 -0.43593,-0.227 -0.93583,-0.007 -0.50651,0.22306 -0.63337,0.6979 -0.12501,0.47007 0.19135,1.18846 0.30615,0.69522 0.74646,0.93215 0.43885,0.23362 0.94205,0.012 0.49659,-0.21868 0.62199,-0.69683 0.12726,-0.48292 -0.18181,-1.18476 z"
         id="path13637"
         style="fill:#ffffff" />
      <path
         d="m 122.18979,106.96914 -0.0292,0.0214 q -0.14388,0.0607 -0.26909,0.1347 -0.12442,0.0689 -0.28189,0.1845 -0.25369,0.18623 -0.4064,0.47334 -0.15486,0.2842 -0.24298,0.62262 l 1.69749,2.31239 -0.54821,0.40243 -2.39104,-3.25717 0.54821,-0.40244 0.3532,0.48114 q 0.13393,-0.50218 0.30259,-0.79202 0.16944,-0.2949 0.42896,-0.48542 0.14289,-0.10489 0.21346,-0.14323 0.0684,-0.0413 0.21172,-0.11504 z"
         id="path13639"
         style="fill:#ffffff" />
      <path
         d="m 128.60284,103.57156 q 0.41201,0.36953 0.36918,0.94823 -0.0404,0.576 -0.56936,1.16575 -0.29949,0.33392 -0.62877,0.54394 -0.32956,0.20491 -0.59288,0.30888 l -0.5682,-0.50962 0.0242,-0.0269 q 0.39538,-0.0779 0.76636,-0.27476 0.36829,-0.19934 0.60981,-0.46863 0.29949,-0.33392 0.36085,-0.61903 0.0614,-0.28512 -0.17024,-0.49283 -0.17773,-0.1594 -0.36107,-0.13919 -0.18334,0.0202 -0.50882,0.25308 -0.12085,0.086 -0.31015,0.23203 -0.18689,0.14337 -0.3526,0.25228 -0.46007,0.30166 -0.81178,0.28747 -0.35199,-0.0193 -0.64821,-0.28497 -0.18581,-0.16665 -0.28245,-0.38938 -0.0942,-0.22543 -0.0834,-0.49755 0.009,-0.26432 0.14369,-0.56112 0.13472,-0.30191 0.39315,-0.59005 0.24153,-0.26929 0.55521,-0.48359 0.3134,-0.2194 0.57189,-0.31798 l 0.54127,0.48546 -0.0242,0.0269 q -0.31662,0.0659 -0.66234,0.2563 -0.34841,0.18801 -0.58752,0.45461 -0.24877,0.27737 -0.31253,0.56517 -0.0665,0.28539 0.14358,0.47378 0.18581,0.16666 0.38392,0.1354 0.19569,-0.0286 0.48197,-0.22857 0.15791,-0.11105 0.3448,-0.25441 0.18931,-0.14606 0.32009,-0.2377 0.39719,-0.28031 0.76525,-0.2952 0.37076,-0.0125 0.6993,0.2822 z"
         id="path13641"
         style="fill:#ffffff" />
    </g>
    <g
       id="g13835"
       transform="matrix(0.65067513,0,0,0.50081854,156.40037,41.112581)"
       style="fill:#ffffff">
      <rect
         style="fill:#ffffff;stroke:#ffffff;stroke-width:2;paint-order:markers stroke fill"
         id="rect13539"
         width="38.271141"
         height="5.9798656"
         x="-103.25234"
         y="58.602684"
         ry="0.79512578" />
      <rect
         style="fill:#ffffff;stroke:#ffffff;stroke-width:2;paint-order:markers stroke fill"
         id="rect13822"
         width="38.271141"
         height="5.9798656"
         x="-103.25234"
         y="79.769371"
         ry="0.79512578" />
      <rect
         style="fill:#ffffff;stroke:#ffffff;stroke-width:2;paint-order:markers stroke fill"
         id="rect13824"
         width="38.271141"
         height="5.9798656"
         x="-111.18987"
         y="69.186028"
         ry="0.79512578" />
      <rect
         style="fill:#ffffff;stroke:#ffffff;stroke-width:2;paint-order:markers stroke fill"
         id="rect13826"
         width="38.271141"
         height="5.9798656"
         x="-95.314857"
         y="90.352715"
         ry="0.79512578" />
      <rect
         style="fill:#ffffff;stroke:#ffffff;stroke-width:2;paint-order:markers stroke fill"
         id="rect13828"
         width="38.271141"
         height="5.9798656"
         x="-103.25237"
         y="100.93606"
         ry="0.79512578" />
    </g>
  </g>
</svg>
